<?xml version="1.0" standalone="no"?>
<!DOCTYPE svg PUBLIC "-//W3C//DTD SVG 20010904//EN"
 "http://www.w3.org/TR/2001/REC-SVG-20010904/DTD/svg10.dtd">
<svg version="1.0" xmlns="http://www.w3.org/2000/svg"
 width="1024.000000pt" height="1024.000000pt" viewBox="0 0 1024.000000 1024.000000"
 preserveAspectRatio="xMidYMid meet">
<metadata>
Created by potrace 1.11, written by Peter Selinger 2001-2013
</metadata>
<g transform="translate(0.000000,1024.000000) scale(0.100000,-0.100000)"
fill="#000000" stroke="none">
<path d="M2563 10229 c-440 -16 -821 -74 -1088 -164 -167 -57 -396 -180 -560
-303 -107 -79 -282 -246 -371 -354 -145 -173 -302 -447 -367 -638 -76 -224
-126 -501 -158 -890 -16 -188 -25 -4853 -10 -5250 17 -453 44 -681 112 -960
61 -250 138 -427 277 -640 170 -260 372 -462 632 -632 213 -139 390 -216 640
-277 279 -68 507 -95 960 -112 397 -15 5062 -6 5250 10 389 32 666 82 890 158
191 65 465 222 638 367 108 89 275 264 354 371 122 163 246 393 303 560 31 93
83 309 104 435 66 398 71 608 71 3130 0 2195 -6 2679 -35 2988 -29 305 -94
618 -165 796 -193 487 -570 900 -1033 1132 -149 75 -237 109 -390 149 -289 76
-584 110 -1074 125 -371 11 -4682 11 -4980 -1z m2813 -612 c63 -32 129 -103
143 -153 6 -22 11 -61 11 -87 0 -94 39 -141 138 -167 149 -38 157 -42 203 -88
34 -34 51 -62 63 -101 43 -146 -3 -279 -117 -336 l-51 -25 -515 0 c-584 0
-560 -3 -637 82 -57 62 -78 121 -72 206 6 75 25 120 72 170 40 43 63 55 161
81 44 12 95 32 113 43 43 26 71 87 72 153 1 112 90 213 215 246 54 15 147 3
201 -24z m2849 -1327 c172 -59 293 -207 315 -387 5 -43 17 -445 25 -893 9
-448 32 -1510 50 -2360 23 -1039 31 -1561 24 -1595 -33 -179 -196 -335 -379
-365 -45 -7 -980 -10 -3095 -8 l-3030 3 -60 24 c-143 58 -235 149 -288 290
-27 69 -28 -143 12 2711 18 1251 35 2173 41 2213 14 92 50 165 117 238 63 68
118 103 201 130 55 17 182 18 3033 18 2953 1 2976 1 3034 -19z m384 -6276 c17
-4 43 -18 57 -33 24 -24 26 -31 22 -91 -6 -81 -33 -135 -93 -188 -76 -66 -105
-72 -379 -72 -211 0 -246 -3 -281 -19 -69 -31 -125 -113 -125 -184 0 -10 32
-143 70 -297 76 -304 82 -357 49 -430 -40 -88 -92 -120 -197 -120 -58 0 -75 4
-114 29 -44 28 -82 71 -108 121 -8 14 -53 181 -101 373 -77 307 -91 353 -121
395 -40 56 -120 107 -192 122 -35 7 -625 9 -1891 8 l-1840 -3 -58 -29 c-64
-33 -144 -111 -176 -173 -11 -23 -61 -205 -111 -405 -49 -199 -97 -378 -105
-396 -22 -47 -72 -66 -155 -58 -180 18 -197 21 -237 48 -53 35 -93 113 -93
180 0 27 32 175 71 331 80 318 82 349 33 419 -16 23 -49 52 -73 65 -42 22 -54
23 -253 23 -197 0 -212 1 -267 24 -125 51 -200 123 -209 201 -6 56 10 96 48
118 28 17 220 18 3332 18 2750 0 3313 2 3363 14 71 16 92 17 134 9z"/>
<path d="M4981 7314 c-50 -36 -51 -46 -51 -592 l0 -509 -52 -24 c-34 -15 -84
-55 -139 -109 -71 -70 -94 -100 -127 -170 -74 -153 -70 -87 -78 -1350 -7
-1058 -6 -1138 10 -1171 9 -20 28 -41 42 -48 33 -15 1136 -16 1165 -1 48 26
47 -12 50 1210 2 1047 1 1151 -15 1214 -44 181 -162 338 -319 425 l-47 26 1
523 c0 572 2 560 -57 582 -14 6 -101 10 -192 10 -139 0 -172 -3 -191 -16z"/>
<path d="M2925 5158 c-44 -26 -44 -27 -45 -388 0 -275 3 -358 15 -403 45 -174
179 -321 341 -376 l59 -20 3 -143 c2 -79 0 -162 -3 -186 -10 -67 -48 -102
-162 -147 -139 -55 -183 -105 -132 -151 20 -18 43 -19 390 -22 318 -2 373 -1
399 13 23 12 30 22 30 44 0 43 -38 73 -147 115 -109 43 -148 73 -164 126 -6
20 -9 104 -7 194 l3 159 40 12 c125 37 257 149 313 265 58 121 62 150 62 522
l0 337 -24 28 -24 28 -464 2 c-338 2 -468 0 -483 -9z"/>
<path d="M6411 4484 c-12 -15 -21 -38 -21 -53 0 -40 96 -592 130 -748 40 -182
66 -257 103 -300 51 -58 74 -63 284 -63 169 0 191 2 230 21 96 47 133 170 243
810 50 297 51 327 10 349 -12 6 -201 10 -489 10 l-470 0 -20 -26z"/>
</g>
</svg>
